# 3ds Max Wavefront OBJ Exporter v0.97b - (c)2007 guruware
# File Created: 20.08.2010 18:13:43

mtllib test.mtl

v  -643.4009 134.4115 -221.4872
v  -618.1631 213.5032 -221.4872
v  -618.7634 213.6947 -217.9138
v  -644.0011 134.6030 -217.9138
# 4 vertices

vn 0.9382 -0.2994 0.1736
vn 0.9382 -0.2994 0.1737
# 2 vertex normals

vt 0.6770 0.0000 0.0000
vt 0.6774 3.1012 0.0000
vt 0.1471 3.1012 0.0000
vt 0.1467 0.0000 0.0000
# 4 texture coords

g sponza_342
usemtl leaf
s 1
f 1/1/1 2/2/2 3/3/2 4/4/1
usemtl leaf
f 1/1/1 2/2/2 3/3/2
# 1 polygons

v  -643.4009 134.4115 -221.4872
v  -618.1631 213.5032 -221.4872
v  -618.7634 213.6947 -217.9138
v  -644.0011 134.6030 -217.9138
# 4 vertices

vn 0.9382 -0.2994 0.1736
vn 0.9382 -0.2994 0.1737
# 2 vertex normals

vt 0.6770 0.0000 0.0000
vt 0.6774 3.1012 0.0000
vt 0.1471 3.1012 0.0000
vt 0.1467 0.0000 0.0000
# 4 texture coords

g sponza_342
usemtl brick
s 1
f 5/5/3 6/6/4 7/7/4 8/8/3
# 1 polygons
